<mxfile host="app.diagrams.net" modified="2024-03-27T07:39:14.429Z" agent="Mozilla/5.0 (Macintosh; Intel Mac OS X 10_15_7) AppleWebKit/537.36 (KHTML, like Gecko) Chrome/122.0.0.0 Safari/537.36" etag="9CjzmLoAIkj55DjlIXz8" version="24.1.0" type="github">
  <diagram id="prtHgNgQTEPvFCAcTncT" name="Page-1">
    <mxGraphModel dx="1728" dy="963" grid="1" gridSize="10" guides="1" tooltips="1" connect="1" arrows="1" fold="1" page="1" pageScale="1" pageWidth="827" pageHeight="1169" math="0" shadow="0">
      <root>
        <mxCell id="0" />
        <mxCell id="1" parent="0" />
        <mxCell id="JN-9uKzLPXxLTeUMZucu-17" value="告警平台" style="swimlane;" parent="1" vertex="1">
          <mxGeometry x="40" y="20" width="140" height="20" as="geometry" />
        </mxCell>
        <mxCell id="JN-9uKzLPXxLTeUMZucu-18" value="值班人员" style="swimlane;" parent="1" vertex="1">
          <mxGeometry x="254" y="20" width="176" height="20" as="geometry" />
        </mxCell>
        <mxCell id="JN-9uKzLPXxLTeUMZucu-19" value="系统管理员" style="swimlane;" parent="1" vertex="1">
          <mxGeometry x="430" y="20" width="220" height="20" as="geometry" />
        </mxCell>
        <mxCell id="JN-9uKzLPXxLTeUMZucu-20" value="运维组长" style="swimlane;startSize=23;" parent="1" vertex="1">
          <mxGeometry x="647" y="20" width="113" height="20" as="geometry" />
        </mxCell>
        <mxCell id="JN-9uKzLPXxLTeUMZucu-23" value="未分派" style="swimlane;html=1;startSize=20;horizontal=0;" parent="1" vertex="1">
          <mxGeometry x="40" y="220" width="720" height="60" as="geometry" />
        </mxCell>
        <mxCell id="JN-9uKzLPXxLTeUMZucu-106" value="告警分派" style="rounded=1;whiteSpace=wrap;html=1;" parent="JN-9uKzLPXxLTeUMZucu-23" vertex="1">
          <mxGeometry x="297" y="17.5" width="80" height="25" as="geometry" />
        </mxCell>
        <mxCell id="JN-9uKzLPXxLTeUMZucu-30" value="角色" style="swimlane;" parent="1" vertex="1">
          <mxGeometry x="40" width="720" height="20" as="geometry" />
        </mxCell>
        <mxCell id="JN-9uKzLPXxLTeUMZucu-31" value="待响应" style="swimlane;html=1;startSize=20;horizontal=0;" parent="1" vertex="1">
          <mxGeometry x="40" y="280" width="720" height="80" as="geometry" />
        </mxCell>
        <mxCell id="JN-9uKzLPXxLTeUMZucu-52" value="" style="edgeStyle=orthogonalEdgeStyle;rounded=0;orthogonalLoop=1;jettySize=auto;html=1;" parent="JN-9uKzLPXxLTeUMZucu-31" source="JN-9uKzLPXxLTeUMZucu-45" target="JN-9uKzLPXxLTeUMZucu-50" edge="1">
          <mxGeometry relative="1" as="geometry" />
        </mxCell>
        <mxCell id="JN-9uKzLPXxLTeUMZucu-45" value="未响应" style="rounded=1;whiteSpace=wrap;html=1;" parent="JN-9uKzLPXxLTeUMZucu-31" vertex="1">
          <mxGeometry x="400" y="22.5" width="70" height="30" as="geometry" />
        </mxCell>
        <mxCell id="JN-9uKzLPXxLTeUMZucu-76" value="" style="edgeStyle=orthogonalEdgeStyle;rounded=0;orthogonalLoop=1;jettySize=auto;html=1;" parent="JN-9uKzLPXxLTeUMZucu-31" source="JN-9uKzLPXxLTeUMZucu-50" target="JN-9uKzLPXxLTeUMZucu-51" edge="1">
          <mxGeometry relative="1" as="geometry" />
        </mxCell>
        <mxCell id="JN-9uKzLPXxLTeUMZucu-77" value="分派升级" style="edgeLabel;html=1;align=center;verticalAlign=middle;resizable=0;points=[];" parent="JN-9uKzLPXxLTeUMZucu-76" vertex="1" connectable="0">
          <mxGeometry x="-0.4333" relative="1" as="geometry">
            <mxPoint x="10" as="offset" />
          </mxGeometry>
        </mxCell>
        <mxCell id="JN-9uKzLPXxLTeUMZucu-50" value="是否未响应" style="rhombus;whiteSpace=wrap;html=1;" parent="JN-9uKzLPXxLTeUMZucu-31" vertex="1">
          <mxGeometry x="510" y="17.5" width="80" height="40" as="geometry" />
        </mxCell>
        <mxCell id="JN-9uKzLPXxLTeUMZucu-51" value="告警分派" style="rounded=1;whiteSpace=wrap;html=1;" parent="JN-9uKzLPXxLTeUMZucu-31" vertex="1">
          <mxGeometry x="640" y="22.5" width="70" height="30" as="geometry" />
        </mxCell>
        <mxCell id="JN-9uKzLPXxLTeUMZucu-108" value="未响应" style="rounded=1;whiteSpace=wrap;html=1;" parent="JN-9uKzLPXxLTeUMZucu-31" vertex="1">
          <mxGeometry x="297" y="27.5" width="80" height="25" as="geometry" />
        </mxCell>
        <mxCell id="JN-9uKzLPXxLTeUMZucu-33" value="处理中" style="swimlane;html=1;startSize=20;horizontal=0;" parent="1" vertex="1">
          <mxGeometry x="40" y="360" width="720" height="130" as="geometry" />
        </mxCell>
        <mxCell id="JN-9uKzLPXxLTeUMZucu-83" value="" style="edgeStyle=orthogonalEdgeStyle;rounded=0;orthogonalLoop=1;jettySize=auto;html=1;" parent="JN-9uKzLPXxLTeUMZucu-33" source="JN-9uKzLPXxLTeUMZucu-53" target="JN-9uKzLPXxLTeUMZucu-82" edge="1">
          <mxGeometry relative="1" as="geometry" />
        </mxCell>
        <mxCell id="JN-9uKzLPXxLTeUMZucu-53" value="告警处理" style="rounded=1;whiteSpace=wrap;html=1;" parent="JN-9uKzLPXxLTeUMZucu-33" vertex="1">
          <mxGeometry x="400" y="30" width="70" height="30" as="geometry" />
        </mxCell>
        <mxCell id="JN-9uKzLPXxLTeUMZucu-82" value="是否告警挂起" style="rhombus;whiteSpace=wrap;html=1;" parent="JN-9uKzLPXxLTeUMZucu-33" vertex="1">
          <mxGeometry x="395" y="80" width="80" height="40" as="geometry" />
        </mxCell>
        <mxCell id="_OSScjGJ3gMnJb72WiWl-35" value="" style="edgeStyle=orthogonalEdgeStyle;rounded=0;orthogonalLoop=1;jettySize=auto;html=1;fontFamily=Helvetica;fontSize=12;fontColor=default;" edge="1" parent="JN-9uKzLPXxLTeUMZucu-33" source="JN-9uKzLPXxLTeUMZucu-110" target="JN-9uKzLPXxLTeUMZucu-115">
          <mxGeometry relative="1" as="geometry" />
        </mxCell>
        <mxCell id="JN-9uKzLPXxLTeUMZucu-110" value="告警处理" style="rounded=1;whiteSpace=wrap;html=1;" parent="JN-9uKzLPXxLTeUMZucu-33" vertex="1">
          <mxGeometry x="297" y="30" width="80" height="27.5" as="geometry" />
        </mxCell>
        <mxCell id="_OSScjGJ3gMnJb72WiWl-33" style="rounded=0;orthogonalLoop=1;jettySize=auto;html=1;fontFamily=Helvetica;fontSize=12;fontColor=default;" edge="1" parent="JN-9uKzLPXxLTeUMZucu-33" source="JN-9uKzLPXxLTeUMZucu-115">
          <mxGeometry relative="1" as="geometry">
            <mxPoint x="337" y="250" as="targetPoint" />
          </mxGeometry>
        </mxCell>
        <mxCell id="_OSScjGJ3gMnJb72WiWl-38" value="否" style="edgeLabel;html=1;align=center;verticalAlign=middle;resizable=0;points=[];rounded=1;strokeColor=default;fontFamily=Helvetica;fontSize=12;fontColor=default;fillColor=default;" vertex="1" connectable="0" parent="_OSScjGJ3gMnJb72WiWl-33">
          <mxGeometry x="-0.1387" relative="1" as="geometry">
            <mxPoint as="offset" />
          </mxGeometry>
        </mxCell>
        <mxCell id="JN-9uKzLPXxLTeUMZucu-115" value="是否告警挂起" style="rhombus;whiteSpace=wrap;html=1;" parent="JN-9uKzLPXxLTeUMZucu-33" vertex="1">
          <mxGeometry x="300" y="80" width="74" height="40" as="geometry" />
        </mxCell>
        <mxCell id="JN-9uKzLPXxLTeUMZucu-169" style="edgeStyle=orthogonalEdgeStyle;rounded=0;orthogonalLoop=1;jettySize=auto;html=1;entryX=1;entryY=0.333;entryDx=0;entryDy=0;fontFamily=Helvetica;fontSize=12;fontColor=default;entryPerimeter=0;" parent="JN-9uKzLPXxLTeUMZucu-33" target="JN-9uKzLPXxLTeUMZucu-53" edge="1">
          <mxGeometry relative="1" as="geometry">
            <mxPoint x="645" y="-25" as="sourcePoint" />
            <mxPoint x="445" y="37.5" as="targetPoint" />
            <Array as="points">
              <mxPoint x="645" y="40" />
            </Array>
          </mxGeometry>
        </mxCell>
        <mxCell id="JN-9uKzLPXxLTeUMZucu-126" value="告警处理" style="rounded=1;whiteSpace=wrap;html=1;" parent="JN-9uKzLPXxLTeUMZucu-33" vertex="1">
          <mxGeometry x="30" y="32.5" width="70" height="27.5" as="geometry" />
        </mxCell>
        <mxCell id="JN-9uKzLPXxLTeUMZucu-35" value="已挂起" style="swimlane;html=1;startSize=20;horizontal=0;" parent="1" vertex="1">
          <mxGeometry x="40" y="490" width="720" height="90" as="geometry" />
        </mxCell>
        <mxCell id="JN-9uKzLPXxLTeUMZucu-158" style="edgeStyle=orthogonalEdgeStyle;rounded=0;orthogonalLoop=1;jettySize=auto;html=1;entryX=0.5;entryY=0;entryDx=0;entryDy=0;" parent="JN-9uKzLPXxLTeUMZucu-35" source="JN-9uKzLPXxLTeUMZucu-112" target="JN-9uKzLPXxLTeUMZucu-153" edge="1">
          <mxGeometry relative="1" as="geometry" />
        </mxCell>
        <mxCell id="JN-9uKzLPXxLTeUMZucu-112" value="告警挂起" style="rounded=1;whiteSpace=wrap;html=1;" parent="JN-9uKzLPXxLTeUMZucu-35" vertex="1">
          <mxGeometry x="240" y="20" width="54" height="27.5" as="geometry" />
        </mxCell>
        <mxCell id="JN-9uKzLPXxLTeUMZucu-153" value="解除挂起" style="rounded=1;whiteSpace=wrap;html=1;" parent="JN-9uKzLPXxLTeUMZucu-35" vertex="1">
          <mxGeometry x="240" y="67.5" width="54" height="17.5" as="geometry" />
        </mxCell>
        <mxCell id="JN-9uKzLPXxLTeUMZucu-163" style="edgeStyle=orthogonalEdgeStyle;rounded=0;orthogonalLoop=1;jettySize=auto;html=1;entryX=0.5;entryY=0;entryDx=0;entryDy=0;fontFamily=Helvetica;fontSize=12;fontColor=default;" parent="JN-9uKzLPXxLTeUMZucu-35" source="JN-9uKzLPXxLTeUMZucu-160" target="JN-9uKzLPXxLTeUMZucu-161" edge="1">
          <mxGeometry relative="1" as="geometry" />
        </mxCell>
        <mxCell id="JN-9uKzLPXxLTeUMZucu-160" value="告警挂起" style="rounded=1;whiteSpace=wrap;html=1;" parent="JN-9uKzLPXxLTeUMZucu-35" vertex="1">
          <mxGeometry x="470" y="20" width="54" height="27.5" as="geometry" />
        </mxCell>
        <mxCell id="JN-9uKzLPXxLTeUMZucu-161" value="解除挂起" style="rounded=1;whiteSpace=wrap;html=1;" parent="JN-9uKzLPXxLTeUMZucu-35" vertex="1">
          <mxGeometry x="470" y="62.5" width="50" height="17.5" as="geometry" />
        </mxCell>
        <mxCell id="_OSScjGJ3gMnJb72WiWl-42" value="" style="endArrow=none;html=1;rounded=0;fontFamily=Helvetica;fontSize=12;fontColor=default;" edge="1" parent="JN-9uKzLPXxLTeUMZucu-35">
          <mxGeometry width="50" height="50" relative="1" as="geometry">
            <mxPoint x="520" y="67.50000000000001" as="sourcePoint" />
            <mxPoint x="560" y="67.51" as="targetPoint" />
          </mxGeometry>
        </mxCell>
        <mxCell id="_OSScjGJ3gMnJb72WiWl-43" value="" style="endArrow=none;html=1;rounded=0;fontFamily=Helvetica;fontSize=12;fontColor=default;" edge="1" parent="JN-9uKzLPXxLTeUMZucu-35">
          <mxGeometry width="50" height="50" relative="1" as="geometry">
            <mxPoint x="560" y="67.5" as="sourcePoint" />
            <mxPoint x="560" y="-90" as="targetPoint" />
          </mxGeometry>
        </mxCell>
        <mxCell id="JN-9uKzLPXxLTeUMZucu-36" value="已恢复" style="swimlane;html=1;startSize=20;horizontal=0;" parent="1" vertex="1">
          <mxGeometry x="40" y="580" width="720" height="90" as="geometry" />
        </mxCell>
        <mxCell id="JN-9uKzLPXxLTeUMZucu-56" value="告警恢复" style="rounded=1;whiteSpace=wrap;html=1;" parent="JN-9uKzLPXxLTeUMZucu-36" vertex="1">
          <mxGeometry x="400" y="31.25" width="70" height="30" as="geometry" />
        </mxCell>
        <mxCell id="JN-9uKzLPXxLTeUMZucu-113" value="告警恢复" style="rounded=1;whiteSpace=wrap;html=1;" parent="JN-9uKzLPXxLTeUMZucu-36" vertex="1">
          <mxGeometry x="310" y="32.5" width="54" height="27.5" as="geometry" />
        </mxCell>
        <mxCell id="JN-9uKzLPXxLTeUMZucu-129" value="告警恢复" style="rounded=1;whiteSpace=wrap;html=1;" parent="JN-9uKzLPXxLTeUMZucu-36" vertex="1">
          <mxGeometry x="25" y="40" width="80" height="27.5" as="geometry" />
        </mxCell>
        <mxCell id="_OSScjGJ3gMnJb72WiWl-45" value="" style="curved=1;endArrow=classic;html=1;rounded=0;fontFamily=Helvetica;fontSize=12;fontColor=default;entryX=0.5;entryY=0;entryDx=0;entryDy=0;" edge="1" parent="JN-9uKzLPXxLTeUMZucu-36" target="JN-9uKzLPXxLTeUMZucu-59">
          <mxGeometry width="50" height="50" relative="1" as="geometry">
            <mxPoint x="440" y="-12.5" as="sourcePoint" />
            <mxPoint x="570" y="67.5" as="targetPoint" />
            <Array as="points">
              <mxPoint x="490" y="-12.5" />
            </Array>
          </mxGeometry>
        </mxCell>
        <mxCell id="_OSScjGJ3gMnJb72WiWl-46" value="" style="curved=1;endArrow=classic;html=1;rounded=0;fontFamily=Helvetica;fontSize=12;fontColor=default;entryX=0.495;entryY=-0.086;entryDx=0;entryDy=0;entryPerimeter=0;" edge="1" parent="JN-9uKzLPXxLTeUMZucu-36" target="JN-9uKzLPXxLTeUMZucu-121">
          <mxGeometry width="50" height="50" relative="1" as="geometry">
            <mxPoint x="340" y="-10" as="sourcePoint" />
            <mxPoint x="330" y="130" as="targetPoint" />
            <Array as="points">
              <mxPoint x="300" y="10" />
              <mxPoint x="290" y="50" />
              <mxPoint x="290" y="88" />
            </Array>
          </mxGeometry>
        </mxCell>
        <mxCell id="JN-9uKzLPXxLTeUMZucu-37" value="已关闭" style="swimlane;html=1;startSize=20;horizontal=0;" parent="1" vertex="1">
          <mxGeometry x="40" y="670" width="720" height="80" as="geometry" />
        </mxCell>
        <mxCell id="JN-9uKzLPXxLTeUMZucu-59" value="告警关闭" style="rounded=1;whiteSpace=wrap;html=1;" parent="JN-9uKzLPXxLTeUMZucu-37" vertex="1">
          <mxGeometry x="470" y="10" width="60" height="30" as="geometry" />
        </mxCell>
        <mxCell id="JN-9uKzLPXxLTeUMZucu-121" value="告警关闭" style="rounded=1;whiteSpace=wrap;html=1;" parent="JN-9uKzLPXxLTeUMZucu-37" vertex="1">
          <mxGeometry x="260" y="10" width="66" height="30" as="geometry" />
        </mxCell>
        <mxCell id="JN-9uKzLPXxLTeUMZucu-38" value="已归档" style="swimlane;html=1;startSize=20;horizontal=0;" parent="1" vertex="1">
          <mxGeometry x="40" y="750" width="720" height="120" as="geometry" />
        </mxCell>
        <mxCell id="JN-9uKzLPXxLTeUMZucu-71" value="告警归档" style="rounded=1;whiteSpace=wrap;html=1;" parent="JN-9uKzLPXxLTeUMZucu-38" vertex="1">
          <mxGeometry x="30" y="45" width="80" height="30" as="geometry" />
        </mxCell>
        <mxCell id="JN-9uKzLPXxLTeUMZucu-124" value="" style="endArrow=none;html=1;rounded=0;entryX=0.457;entryY=1.042;entryDx=0;entryDy=0;entryPerimeter=0;" parent="JN-9uKzLPXxLTeUMZucu-38" edge="1" target="JN-9uKzLPXxLTeUMZucu-121">
          <mxGeometry width="50" height="50" relative="1" as="geometry">
            <mxPoint x="290" y="60" as="sourcePoint" />
            <mxPoint x="290" y="-20" as="targetPoint" />
          </mxGeometry>
        </mxCell>
        <mxCell id="JN-9uKzLPXxLTeUMZucu-40" value="无" style="swimlane;html=1;startSize=20;horizontal=0;" parent="1" vertex="1">
          <mxGeometry x="40" y="40" width="720" height="180" as="geometry" />
        </mxCell>
        <mxCell id="JN-9uKzLPXxLTeUMZucu-102" value="告警未分派" style="rounded=1;whiteSpace=wrap;html=1;" parent="JN-9uKzLPXxLTeUMZucu-40" vertex="1">
          <mxGeometry x="140" y="141.25" width="70" height="27.5" as="geometry" />
        </mxCell>
        <mxCell id="JN-9uKzLPXxLTeUMZucu-140" value="" style="endArrow=none;dashed=1;html=1;dashPattern=1 3;strokeWidth=2;rounded=0;" parent="JN-9uKzLPXxLTeUMZucu-40" edge="1">
          <mxGeometry width="50" height="50" relative="1" as="geometry">
            <mxPoint x="126" y="820" as="sourcePoint" />
            <mxPoint x="126" as="targetPoint" />
          </mxGeometry>
        </mxCell>
        <mxCell id="JN-9uKzLPXxLTeUMZucu-141" value="" style="endArrow=none;dashed=1;html=1;dashPattern=1 3;strokeWidth=2;rounded=0;" parent="JN-9uKzLPXxLTeUMZucu-40" edge="1">
          <mxGeometry width="50" height="50" relative="1" as="geometry">
            <mxPoint x="390" y="820" as="sourcePoint" />
            <mxPoint x="390" as="targetPoint" />
          </mxGeometry>
        </mxCell>
        <mxCell id="JN-9uKzLPXxLTeUMZucu-142" value="" style="endArrow=none;dashed=1;html=1;dashPattern=1 3;strokeWidth=2;rounded=0;" parent="JN-9uKzLPXxLTeUMZucu-40" edge="1">
          <mxGeometry width="50" height="50" relative="1" as="geometry">
            <mxPoint x="610" y="820" as="sourcePoint" />
            <mxPoint x="610" as="targetPoint" />
          </mxGeometry>
        </mxCell>
        <mxCell id="JN-9uKzLPXxLTeUMZucu-41" value="有效告警" style="ellipse;whiteSpace=wrap;html=1;" parent="JN-9uKzLPXxLTeUMZucu-40" vertex="1">
          <mxGeometry x="20" y="10" width="80" height="30" as="geometry" />
        </mxCell>
        <mxCell id="_OSScjGJ3gMnJb72WiWl-8" value="" style="edgeStyle=orthogonalEdgeStyle;rounded=0;orthogonalLoop=1;jettySize=auto;html=1;fontFamily=Helvetica;fontSize=12;fontColor=default;" edge="1" parent="JN-9uKzLPXxLTeUMZucu-40" source="JN-9uKzLPXxLTeUMZucu-43" target="JN-9uKzLPXxLTeUMZucu-100">
          <mxGeometry relative="1" as="geometry" />
        </mxCell>
        <mxCell id="JN-9uKzLPXxLTeUMZucu-43" value="是否符合告警分派规则" style="rhombus;whiteSpace=wrap;html=1;" parent="JN-9uKzLPXxLTeUMZucu-40" vertex="1">
          <mxGeometry x="20" y="65" width="80" height="50" as="geometry" />
        </mxCell>
        <mxCell id="JN-9uKzLPXxLTeUMZucu-44" value="" style="edgeStyle=orthogonalEdgeStyle;rounded=0;orthogonalLoop=1;jettySize=auto;html=1;" parent="JN-9uKzLPXxLTeUMZucu-40" source="JN-9uKzLPXxLTeUMZucu-41" target="JN-9uKzLPXxLTeUMZucu-43" edge="1">
          <mxGeometry relative="1" as="geometry" />
        </mxCell>
        <mxCell id="_OSScjGJ3gMnJb72WiWl-4" value="" style="edgeStyle=orthogonalEdgeStyle;rounded=0;orthogonalLoop=1;jettySize=auto;html=1;fontFamily=Helvetica;fontSize=12;fontColor=default;" edge="1" parent="JN-9uKzLPXxLTeUMZucu-40" source="JN-9uKzLPXxLTeUMZucu-100" target="JN-9uKzLPXxLTeUMZucu-102">
          <mxGeometry relative="1" as="geometry" />
        </mxCell>
        <mxCell id="_OSScjGJ3gMnJb72WiWl-5" value="否" style="edgeLabel;html=1;align=center;verticalAlign=middle;resizable=0;points=[];rounded=1;strokeColor=default;fontFamily=Helvetica;fontSize=12;fontColor=default;fillColor=default;" vertex="1" connectable="0" parent="_OSScjGJ3gMnJb72WiWl-4">
          <mxGeometry x="-0.18" relative="1" as="geometry">
            <mxPoint as="offset" />
          </mxGeometry>
        </mxCell>
        <mxCell id="JN-9uKzLPXxLTeUMZucu-100" value="是否符合告警自愈规则" style="rhombus;whiteSpace=wrap;html=1;" parent="JN-9uKzLPXxLTeUMZucu-40" vertex="1">
          <mxGeometry x="20" y="130" width="80" height="50" as="geometry" />
        </mxCell>
        <mxCell id="_OSScjGJ3gMnJb72WiWl-9" value="" style="endArrow=none;dashed=1;html=1;dashPattern=1 3;strokeWidth=2;rounded=0;" edge="1" parent="JN-9uKzLPXxLTeUMZucu-40">
          <mxGeometry width="50" height="50" relative="1" as="geometry">
            <mxPoint x="220" y="820" as="sourcePoint" />
            <mxPoint x="220" as="targetPoint" />
          </mxGeometry>
        </mxCell>
        <mxCell id="JN-9uKzLPXxLTeUMZucu-54" value="" style="edgeStyle=orthogonalEdgeStyle;rounded=0;orthogonalLoop=1;jettySize=auto;html=1;" parent="1" source="JN-9uKzLPXxLTeUMZucu-45" target="JN-9uKzLPXxLTeUMZucu-53" edge="1">
          <mxGeometry relative="1" as="geometry" />
        </mxCell>
        <mxCell id="JN-9uKzLPXxLTeUMZucu-55" value="告警认领" style="edgeLabel;html=1;align=center;verticalAlign=middle;resizable=0;points=[];" parent="JN-9uKzLPXxLTeUMZucu-54" vertex="1" connectable="0">
          <mxGeometry x="-0.3273" y="-1" relative="1" as="geometry">
            <mxPoint as="offset" />
          </mxGeometry>
        </mxCell>
        <mxCell id="JN-9uKzLPXxLTeUMZucu-72" style="edgeStyle=orthogonalEdgeStyle;rounded=0;orthogonalLoop=1;jettySize=auto;html=1;entryX=1;entryY=0.5;entryDx=0;entryDy=0;" parent="1" source="JN-9uKzLPXxLTeUMZucu-59" target="JN-9uKzLPXxLTeUMZucu-71" edge="1">
          <mxGeometry relative="1" as="geometry">
            <Array as="points">
              <mxPoint x="540" y="810" />
            </Array>
          </mxGeometry>
        </mxCell>
        <mxCell id="JN-9uKzLPXxLTeUMZucu-96" style="edgeStyle=orthogonalEdgeStyle;rounded=0;orthogonalLoop=1;jettySize=auto;html=1;entryX=0.5;entryY=0;entryDx=0;entryDy=0;" parent="1" source="JN-9uKzLPXxLTeUMZucu-43" target="JN-9uKzLPXxLTeUMZucu-45" edge="1">
          <mxGeometry relative="1" as="geometry" />
        </mxCell>
        <mxCell id="JN-9uKzLPXxLTeUMZucu-97" value="是" style="edgeLabel;html=1;align=center;verticalAlign=middle;resizable=0;points=[];" parent="JN-9uKzLPXxLTeUMZucu-96" vertex="1" connectable="0">
          <mxGeometry x="-0.3679" y="2" relative="1" as="geometry">
            <mxPoint as="offset" />
          </mxGeometry>
        </mxCell>
        <mxCell id="JN-9uKzLPXxLTeUMZucu-109" style="edgeStyle=orthogonalEdgeStyle;rounded=0;orthogonalLoop=1;jettySize=auto;html=1;entryX=0.5;entryY=0;entryDx=0;entryDy=0;" parent="1" source="JN-9uKzLPXxLTeUMZucu-106" target="JN-9uKzLPXxLTeUMZucu-108" edge="1">
          <mxGeometry relative="1" as="geometry" />
        </mxCell>
        <mxCell id="JN-9uKzLPXxLTeUMZucu-111" style="edgeStyle=orthogonalEdgeStyle;rounded=0;orthogonalLoop=1;jettySize=auto;html=1;entryX=0.5;entryY=0;entryDx=0;entryDy=0;" parent="1" source="JN-9uKzLPXxLTeUMZucu-108" target="JN-9uKzLPXxLTeUMZucu-110" edge="1">
          <mxGeometry relative="1" as="geometry" />
        </mxCell>
        <mxCell id="_OSScjGJ3gMnJb72WiWl-48" value="告警认领" style="edgeLabel;html=1;align=center;verticalAlign=middle;resizable=0;points=[];rounded=1;strokeColor=default;fontFamily=Helvetica;fontSize=12;fontColor=default;fillColor=default;" vertex="1" connectable="0" parent="JN-9uKzLPXxLTeUMZucu-111">
          <mxGeometry x="-0.3217" y="3" relative="1" as="geometry">
            <mxPoint as="offset" />
          </mxGeometry>
        </mxCell>
        <mxCell id="JN-9uKzLPXxLTeUMZucu-26" value="告警状态机" style="swimlane;childLayout=stackLayout;resizeParent=1;resizeParentMax=0;horizontal=0;startSize=20;horizontalStack=0;html=1;" parent="1" vertex="1" collapsed="1">
          <mxGeometry x="20" y="20" width="20" height="850" as="geometry">
            <mxRectangle x="80" y="320" width="480" height="30" as="alternateBounds" />
          </mxGeometry>
        </mxCell>
        <mxCell id="_OSScjGJ3gMnJb72WiWl-3" value="一线运维" style="swimlane;startSize=20;" vertex="1" parent="1">
          <mxGeometry x="170" y="20" width="84" height="20" as="geometry" />
        </mxCell>
        <mxCell id="JN-9uKzLPXxLTeUMZucu-134" style="edgeStyle=orthogonalEdgeStyle;rounded=0;orthogonalLoop=1;jettySize=auto;html=1;entryX=0.5;entryY=0;entryDx=0;entryDy=0;" parent="1" source="JN-9uKzLPXxLTeUMZucu-126" target="JN-9uKzLPXxLTeUMZucu-129" edge="1">
          <mxGeometry relative="1" as="geometry">
            <Array as="points">
              <mxPoint x="105" y="610" />
            </Array>
          </mxGeometry>
        </mxCell>
        <mxCell id="_OSScjGJ3gMnJb72WiWl-23" style="edgeStyle=orthogonalEdgeStyle;rounded=0;orthogonalLoop=1;jettySize=auto;html=1;entryX=0.431;entryY=-0.025;entryDx=0;entryDy=0;entryPerimeter=0;fontFamily=Helvetica;fontSize=12;fontColor=default;" edge="1" parent="1" source="JN-9uKzLPXxLTeUMZucu-100" target="JN-9uKzLPXxLTeUMZucu-126">
          <mxGeometry relative="1" as="geometry" />
        </mxCell>
        <mxCell id="_OSScjGJ3gMnJb72WiWl-24" value="是" style="edgeLabel;html=1;align=center;verticalAlign=middle;resizable=0;points=[];rounded=1;strokeColor=default;fontFamily=Helvetica;fontSize=12;fontColor=default;fillColor=default;" vertex="1" connectable="0" parent="_OSScjGJ3gMnJb72WiWl-23">
          <mxGeometry x="0.0582" y="-1" relative="1" as="geometry">
            <mxPoint as="offset" />
          </mxGeometry>
        </mxCell>
        <mxCell id="_OSScjGJ3gMnJb72WiWl-25" style="edgeStyle=orthogonalEdgeStyle;rounded=0;orthogonalLoop=1;jettySize=auto;html=1;entryX=0.434;entryY=0.045;entryDx=0;entryDy=0;entryPerimeter=0;fontFamily=Helvetica;fontSize=12;fontColor=default;" edge="1" parent="1" source="JN-9uKzLPXxLTeUMZucu-129" target="JN-9uKzLPXxLTeUMZucu-71">
          <mxGeometry relative="1" as="geometry" />
        </mxCell>
        <mxCell id="_OSScjGJ3gMnJb72WiWl-26" style="edgeStyle=orthogonalEdgeStyle;rounded=0;orthogonalLoop=1;jettySize=auto;html=1;entryX=0;entryY=0.75;entryDx=0;entryDy=0;fontFamily=Helvetica;fontSize=12;fontColor=default;" edge="1" parent="1" source="JN-9uKzLPXxLTeUMZucu-102" target="JN-9uKzLPXxLTeUMZucu-106">
          <mxGeometry relative="1" as="geometry">
            <Array as="points">
              <mxPoint x="210" y="256" />
            </Array>
          </mxGeometry>
        </mxCell>
        <mxCell id="_OSScjGJ3gMnJb72WiWl-28" style="edgeStyle=orthogonalEdgeStyle;rounded=0;orthogonalLoop=1;jettySize=auto;html=1;entryX=0.5;entryY=0;entryDx=0;entryDy=0;fontFamily=Helvetica;fontSize=12;fontColor=default;" edge="1" parent="1" source="JN-9uKzLPXxLTeUMZucu-82" target="JN-9uKzLPXxLTeUMZucu-56">
          <mxGeometry relative="1" as="geometry">
            <Array as="points">
              <mxPoint x="475" y="610" />
            </Array>
          </mxGeometry>
        </mxCell>
        <mxCell id="_OSScjGJ3gMnJb72WiWl-30" value="否" style="edgeLabel;html=1;align=center;verticalAlign=middle;resizable=0;points=[];rounded=1;strokeColor=default;fontFamily=Helvetica;fontSize=12;fontColor=default;fillColor=default;" vertex="1" connectable="0" parent="_OSScjGJ3gMnJb72WiWl-28">
          <mxGeometry x="-0.1813" y="2" relative="1" as="geometry">
            <mxPoint x="-2" y="4" as="offset" />
          </mxGeometry>
        </mxCell>
        <mxCell id="_OSScjGJ3gMnJb72WiWl-31" style="edgeStyle=orthogonalEdgeStyle;rounded=0;orthogonalLoop=1;jettySize=auto;html=1;entryX=0.514;entryY=-0.097;entryDx=0;entryDy=0;entryPerimeter=0;fontFamily=Helvetica;fontSize=12;fontColor=default;" edge="1" parent="1" source="JN-9uKzLPXxLTeUMZucu-115" target="JN-9uKzLPXxLTeUMZucu-112">
          <mxGeometry relative="1" as="geometry" />
        </mxCell>
        <mxCell id="_OSScjGJ3gMnJb72WiWl-37" value="是" style="edgeLabel;html=1;align=center;verticalAlign=middle;resizable=0;points=[];rounded=1;strokeColor=default;fontFamily=Helvetica;fontSize=12;fontColor=default;fillColor=default;" vertex="1" connectable="0" parent="_OSScjGJ3gMnJb72WiWl-31">
          <mxGeometry x="0.1784" relative="1" as="geometry">
            <mxPoint as="offset" />
          </mxGeometry>
        </mxCell>
        <mxCell id="_OSScjGJ3gMnJb72WiWl-32" style="edgeStyle=orthogonalEdgeStyle;rounded=0;orthogonalLoop=1;jettySize=auto;html=1;entryX=0;entryY=0.5;entryDx=0;entryDy=0;fontFamily=Helvetica;fontSize=12;fontColor=default;" edge="1" parent="1" source="JN-9uKzLPXxLTeUMZucu-153" target="JN-9uKzLPXxLTeUMZucu-110">
          <mxGeometry relative="1" as="geometry">
            <Array as="points">
              <mxPoint x="270" y="566" />
              <mxPoint x="270" y="404" />
            </Array>
          </mxGeometry>
        </mxCell>
        <mxCell id="_OSScjGJ3gMnJb72WiWl-39" style="edgeStyle=orthogonalEdgeStyle;rounded=0;orthogonalLoop=1;jettySize=auto;html=1;entryX=0.5;entryY=0;entryDx=0;entryDy=0;fontFamily=Helvetica;fontSize=12;fontColor=default;" edge="1" parent="1" source="JN-9uKzLPXxLTeUMZucu-82" target="JN-9uKzLPXxLTeUMZucu-160">
          <mxGeometry relative="1" as="geometry">
            <Array as="points">
              <mxPoint x="537" y="460" />
            </Array>
          </mxGeometry>
        </mxCell>
        <mxCell id="_OSScjGJ3gMnJb72WiWl-40" value="是" style="edgeLabel;html=1;align=center;verticalAlign=middle;resizable=0;points=[];rounded=1;strokeColor=default;fontFamily=Helvetica;fontSize=12;fontColor=default;fillColor=default;" vertex="1" connectable="0" parent="_OSScjGJ3gMnJb72WiWl-39">
          <mxGeometry x="-0.01" relative="1" as="geometry">
            <mxPoint as="offset" />
          </mxGeometry>
        </mxCell>
      </root>
    </mxGraphModel>
  </diagram>
</mxfile>
